<?xml version="1.0" standalone="no"?>
<!DOCTYPE svg PUBLIC "-//W3C//DTD SVG 20010904//EN"
        "http://www.w3.org/TR/2001/REC-SVG-20010904/DTD/svg10.dtd">
<svg version="1.0" xmlns="http://www.w3.org/2000/svg"
     width="138.000000pt" height="224.000000pt" viewBox="0 0 138.000000 224.000000"
     preserveAspectRatio="xMidYMid meet">

    <g transform="translate(0.000000,224.000000) scale(0.100000,-0.100000)"
       fill="#000000" stroke="none">
        <path d="M278 2182 c-37 -31 -108 -103 -158 -159 l-90 -102 0 -546 0 -546 102
-115 101 -114 399 0 399 0 59 47 c32 27 104 98 159 160 l101 111 0 126 0 126
-169 0 -168 0 -61 -48 c-61 -47 -61 -47 -62 -99 l0 -53 -184 0 -184 0 -16 25
c-14 21 -16 75 -16 450 l0 425 184 0 c220 0 216 2 216 -117 l0 -73 177 0 176
0 54 41 53 41 0 125 0 125 -101 114 -101 114 -402 0 -401 0 -67 -58z m946 -79
l96 -106 0 -99 0 -98 -140 0 -140 0 0 68 c0 62 -3 71 -28 95 l-28 27 -240 0
-239 0 -27 -34 -28 -35 0 -457 0 -458 32 -33 32 -33 237 0 237 0 26 31 c23 26
26 40 26 100 l0 69 140 0 140 0 0 -102 -1 -103 -95 -107 -96 -108 -378 0 -378
0 -96 104 -96 103 0 537 0 537 92 105 93 104 382 0 382 0 95 -107z"/>
        <path d="M336 2066 l-76 -83 0 -516 0 -516 71 -81 72 -80 346 0 346 1 72 82
c72 81 72 83 73 140 l0 57 -60 0 -60 0 0 -45 c0 -41 -5 -52 -46 -95 l-47 -50
-281 0 -281 0 -47 54 -48 55 0 477 0 477 46 53 46 54 285 0 285 0 43 -47 c39
-42 44 -54 45 -95 l0 -48 60 0 60 0 0 58 c0 57 0 57 -77 145 l-76 87 -338 0
-337 0 -76 -84z"/>
        <path d="M80 417 c-43 -22 -70 -74 -70 -134 0 -71 21 -118 61 -138 36 -19 129
-22 172 -6 24 10 27 15 27 61 l0 50 -44 0 c-41 0 -45 -2 -48 -27 -2 -20 -9
-28 -23 -28 -18 0 -20 8 -23 79 -2 54 1 82 9 87 20 12 39 -1 39 -27 0 -22 4
-24 45 -24 l45 0 0 50 c0 48 -1 49 -37 59 -51 15 -123 13 -153 -2z"/>
        <path d="M327 423 c-11 -10 -8 -53 3 -53 6 0 10 -37 10 -90 0 -53 -4 -90 -10
-90 -5 0 -10 -13 -10 -30 0 -30 0 -30 59 -30 l58 0 -4 138 c-2 75 -6 143 -8
150 -5 13 -86 17 -98 5z"/>
        <path d="M514 416 c-12 -31 1 -51 34 -54 31 -3 32 -2 32 32 0 33 -2 36 -30 36
-17 0 -33 -6 -36 -14z"/>
        <path d="M778 335 c-16 -7 -28 -10 -28 -4 0 5 -25 9 -55 9 -54 0 -55 0 -55
-30 0 -16 5 -30 10 -30 6 0 10 -37 10 -90 0 -57 -4 -90 -11 -90 -6 0 -9 -12
-7 -27 3 -27 6 -28 66 -31 l62 -3 0 31 c0 16 -4 30 -10 30 -5 0 -10 11 -10 24
0 23 2 24 25 12 52 -27 101 5 105 69 4 63 -1 93 -17 113 -25 28 -53 34 -85 17z
m12 -101 c0 -38 -3 -45 -17 -42 -13 2 -19 15 -21 46 -3 37 -1 42 17 42 18 0
21 -6 21 -46z"/>
        <path d="M1010 341 c-55 -14 -80 -46 -80 -105 0 -76 35 -109 116 -108 77 1 94
8 94 41 0 28 -1 28 -56 27 -38 -1 -58 3 -61 12 -3 9 12 12 56 12 l61 0 0 35
c0 38 -36 85 -64 85 -8 0 -20 2 -28 4 -7 2 -24 1 -38 -3z m50 -76 c0 -8 -9
-15 -20 -15 -20 0 -26 11 -13 23 12 13 33 7 33 -8z"/>
        <path d="M1313 335 c-13 -9 -23 -11 -23 -6 0 6 -21 11 -48 11 l-48 0 0 -105 0
-105 68 0 68 0 0 30 c0 23 -4 30 -20 30 -16 0 -20 7 -20 33 0 41 15 57 53 57
26 0 28 3 25 32 -3 38 -23 46 -55 23z"/>
        <path d="M494 235 l0 -105 58 0 c58 0 58 0 58 30 0 17 -4 30 -10 30 -6 0 -10
32 -10 75 l0 75 -48 0 -48 0 0 -105z"/>
    </g>
</svg>
